<mxfile host="app.diagrams.net" agent="Mozilla/5.0 (Windows NT 10.0; Win64; x64) AppleWebKit/537.36 (KHTML, like Gecko) Chrome/135.0.0.0 Safari/537.36" version="26.2.13">
  <diagram name="Page-1" id="EoW6SnOeLAvMnvrHyZ82">
    <mxGraphModel dx="2229" dy="1733" grid="1" gridSize="10" guides="1" tooltips="1" connect="1" arrows="1" fold="1" page="1" pageScale="1" pageWidth="850" pageHeight="1100" math="0" shadow="0">
      <root>
        <mxCell id="0" />
        <mxCell id="1" parent="0" />
        <mxCell id="HPYgmq36R9sdUYHRq6VX-4" style="edgeStyle=orthogonalEdgeStyle;rounded=0;orthogonalLoop=1;jettySize=auto;html=1;exitX=0.545;exitY=0.889;exitDx=0;exitDy=0;exitPerimeter=0;strokeWidth=2;entryX=0.827;entryY=0;entryDx=0;entryDy=0;entryPerimeter=0;" parent="1" edge="1">
          <mxGeometry relative="1" as="geometry">
            <mxPoint x="870" y="382.90999999999985" as="targetPoint" />
            <mxPoint x="409.99" y="319.9999999999999" as="sourcePoint" />
            <Array as="points">
              <mxPoint x="320" y="320" />
              <mxPoint x="320" y="650" />
              <mxPoint x="1040" y="650" />
              <mxPoint x="1040" y="280" />
              <mxPoint x="870" y="280" />
            </Array>
          </mxGeometry>
        </mxCell>
        <mxCell id="HPYgmq36R9sdUYHRq6VX-63" value="S_AWVALID" style="edgeLabel;html=1;align=center;verticalAlign=middle;resizable=0;points=[];" parent="HPYgmq36R9sdUYHRq6VX-4" vertex="1" connectable="0">
          <mxGeometry x="-0.9275" y="-3" relative="1" as="geometry">
            <mxPoint x="-25" y="-47" as="offset" />
          </mxGeometry>
        </mxCell>
        <mxCell id="HPYgmq36R9sdUYHRq6VX-100" value="M_AWADDR[31:0]" style="edgeLabel;html=1;align=center;verticalAlign=middle;resizable=0;points=[];" parent="HPYgmq36R9sdUYHRq6VX-4" vertex="1" connectable="0">
          <mxGeometry x="0.827" y="3" relative="1" as="geometry">
            <mxPoint x="19" y="-13" as="offset" />
          </mxGeometry>
        </mxCell>
        <mxCell id="HPYgmq36R9sdUYHRq6VX-5" style="edgeStyle=orthogonalEdgeStyle;rounded=0;orthogonalLoop=1;jettySize=auto;html=1;exitX=0.75;exitY=1;exitDx=0;exitDy=0;entryX=0.945;entryY=-0.011;entryDx=0;entryDy=0;entryPerimeter=0;strokeWidth=2;" parent="1" edge="1">
          <mxGeometry relative="1" as="geometry">
            <mxPoint x="870.99" y="474.3499999999999" as="targetPoint" />
            <mxPoint x="370" y="410" as="sourcePoint" />
            <Array as="points">
              <mxPoint x="370" y="480" />
              <mxPoint x="210" y="480" />
              <mxPoint x="210" y="960" />
              <mxPoint x="1090" y="960" />
              <mxPoint x="1090" y="474" />
            </Array>
          </mxGeometry>
        </mxCell>
        <mxCell id="HPYgmq36R9sdUYHRq6VX-67" value="S_WDATA[31:0]" style="edgeLabel;html=1;align=center;verticalAlign=middle;resizable=0;points=[];" parent="HPYgmq36R9sdUYHRq6VX-5" vertex="1" connectable="0">
          <mxGeometry x="-0.9041" y="3" relative="1" as="geometry">
            <mxPoint as="offset" />
          </mxGeometry>
        </mxCell>
        <mxCell id="HPYgmq36R9sdUYHRq6VX-104" value="M_WDATA[31:0]" style="edgeLabel;html=1;align=center;verticalAlign=middle;resizable=0;points=[];" parent="HPYgmq36R9sdUYHRq6VX-5" vertex="1" connectable="0">
          <mxGeometry x="0.9515" relative="1" as="geometry">
            <mxPoint as="offset" />
          </mxGeometry>
        </mxCell>
        <mxCell id="HPYgmq36R9sdUYHRq6VX-9" style="edgeStyle=orthogonalEdgeStyle;rounded=0;orthogonalLoop=1;jettySize=auto;html=1;exitX=0.25;exitY=1;exitDx=0;exitDy=0;" parent="1" source="zjsat3UUJ6D1l1Pgh6Zy-1" edge="1">
          <mxGeometry relative="1" as="geometry">
            <mxPoint x="120" y="90" as="targetPoint" />
          </mxGeometry>
        </mxCell>
        <mxCell id="HPYgmq36R9sdUYHRq6VX-58" value="ARESETN" style="edgeLabel;html=1;align=center;verticalAlign=middle;resizable=0;points=[];" parent="HPYgmq36R9sdUYHRq6VX-9" vertex="1" connectable="0">
          <mxGeometry x="-0.8232" y="-2" relative="1" as="geometry">
            <mxPoint as="offset" />
          </mxGeometry>
        </mxCell>
        <mxCell id="HPYgmq36R9sdUYHRq6VX-10" style="edgeStyle=orthogonalEdgeStyle;rounded=0;orthogonalLoop=1;jettySize=auto;html=1;entryX=0.773;entryY=-0.022;entryDx=0;entryDy=0;entryPerimeter=0;" parent="1" edge="1">
          <mxGeometry relative="1" as="geometry">
            <mxPoint x="861.98" y="528.0899999999999" as="targetPoint" />
            <mxPoint x="356" y="437" as="sourcePoint" />
            <Array as="points">
              <mxPoint x="370" y="437" />
              <mxPoint x="370" y="428" />
              <mxPoint x="10" y="428" />
              <mxPoint x="10" y="913" />
              <mxPoint x="1310" y="913" />
              <mxPoint x="1310" y="528" />
            </Array>
          </mxGeometry>
        </mxCell>
        <mxCell id="HPYgmq36R9sdUYHRq6VX-65" value="S_BREADY" style="edgeLabel;html=1;align=center;verticalAlign=middle;resizable=0;points=[];" parent="HPYgmq36R9sdUYHRq6VX-10" vertex="1" connectable="0">
          <mxGeometry x="-0.9522" relative="1" as="geometry">
            <mxPoint as="offset" />
          </mxGeometry>
        </mxCell>
        <mxCell id="HPYgmq36R9sdUYHRq6VX-108" value="M_WVALID" style="edgeLabel;html=1;align=center;verticalAlign=middle;resizable=0;points=[];" parent="HPYgmq36R9sdUYHRq6VX-10" vertex="1" connectable="0">
          <mxGeometry x="0.96" relative="1" as="geometry">
            <mxPoint y="-8" as="offset" />
          </mxGeometry>
        </mxCell>
        <mxCell id="HPYgmq36R9sdUYHRq6VX-18" style="edgeStyle=orthogonalEdgeStyle;rounded=0;orthogonalLoop=1;jettySize=auto;html=1;exitX=0.25;exitY=0;exitDx=0;exitDy=0;entryX=0.25;entryY=1;entryDx=0;entryDy=0;" parent="1" source="zjsat3UUJ6D1l1Pgh6Zy-1" target="zjsat3UUJ6D1l1Pgh6Zy-4" edge="1">
          <mxGeometry relative="1" as="geometry">
            <Array as="points">
              <mxPoint x="470" y="203" />
              <mxPoint x="620" y="203" />
              <mxPoint x="620" y="250" />
              <mxPoint x="790" y="250" />
            </Array>
          </mxGeometry>
        </mxCell>
        <mxCell id="HPYgmq36R9sdUYHRq6VX-72" value="S_BVALID" style="edgeLabel;html=1;align=center;verticalAlign=middle;resizable=0;points=[];" parent="HPYgmq36R9sdUYHRq6VX-18" vertex="1" connectable="0">
          <mxGeometry x="-0.8034" y="2" relative="1" as="geometry">
            <mxPoint x="7" y="-1" as="offset" />
          </mxGeometry>
        </mxCell>
        <mxCell id="HPYgmq36R9sdUYHRq6VX-85" value="M_BVALID" style="edgeLabel;html=1;align=center;verticalAlign=middle;resizable=0;points=[];" parent="HPYgmq36R9sdUYHRq6VX-18" vertex="1" connectable="0">
          <mxGeometry x="0.4508" y="1" relative="1" as="geometry">
            <mxPoint y="-9" as="offset" />
          </mxGeometry>
        </mxCell>
        <mxCell id="zjsat3UUJ6D1l1Pgh6Zy-1" value="" style="rounded=0;whiteSpace=wrap;html=1;direction=south;fillColor=#dae8fc;strokeColor=#6c8ebf;" parent="1" vertex="1">
          <mxGeometry x="380" y="108" width="90" height="330" as="geometry" />
        </mxCell>
        <mxCell id="zjsat3UUJ6D1l1Pgh6Zy-2" value="" style="shape=offPageConnector;whiteSpace=wrap;html=1;direction=north;size=0.6666666666666666;" parent="1" vertex="1">
          <mxGeometry x="50" y="30" width="30" height="30" as="geometry" />
        </mxCell>
        <mxCell id="zjsat3UUJ6D1l1Pgh6Zy-4" value="" style="rounded=0;whiteSpace=wrap;html=1;direction=south;fillColor=#dae8fc;strokeColor=#6c8ebf;" parent="1" vertex="1">
          <mxGeometry x="790" y="120" width="90" height="460" as="geometry" />
        </mxCell>
        <mxCell id="zjsat3UUJ6D1l1Pgh6Zy-5" value="" style="endArrow=none;html=1;rounded=0;exitX=0.5;exitY=1;exitDx=0;exitDy=0;entryX=0.057;entryY=0.956;entryDx=0;entryDy=0;entryPerimeter=0;strokeColor=#66FF66;strokeWidth=2;" parent="1" edge="1">
          <mxGeometry width="50" height="50" relative="1" as="geometry">
            <mxPoint x="80" y="42.39" as="sourcePoint" />
            <mxPoint x="793.96" y="143.61" as="targetPoint" />
            <Array as="points">
              <mxPoint x="240" y="47.39" />
              <mxPoint x="740" y="47.39" />
              <mxPoint x="740" y="130" />
              <mxPoint x="790" y="130" />
            </Array>
          </mxGeometry>
        </mxCell>
        <mxCell id="HPYgmq36R9sdUYHRq6VX-80" value="ACLK" style="edgeLabel;html=1;align=center;verticalAlign=middle;resizable=0;points=[];" parent="zjsat3UUJ6D1l1Pgh6Zy-5" vertex="1" connectable="0">
          <mxGeometry x="0.9074" y="1" relative="1" as="geometry">
            <mxPoint y="-8" as="offset" />
          </mxGeometry>
        </mxCell>
        <mxCell id="zjsat3UUJ6D1l1Pgh6Zy-7" value="" style="shape=offPageConnector;whiteSpace=wrap;html=1;direction=north;strokeWidth=1;" parent="1" vertex="1">
          <mxGeometry x="50" y="80" width="30" height="30" as="geometry" />
        </mxCell>
        <mxCell id="zjsat3UUJ6D1l1Pgh6Zy-8" value="" style="endArrow=none;html=1;rounded=0;entryX=0.127;entryY=0.989;entryDx=0;entryDy=0;entryPerimeter=0;startArrow=oval;startFill=1;strokeWidth=1;" parent="1" edge="1">
          <mxGeometry width="50" height="50" relative="1" as="geometry">
            <mxPoint x="160" y="40" as="sourcePoint" />
            <mxPoint x="380" y="145.90999999999985" as="targetPoint" />
            <Array as="points">
              <mxPoint x="160" y="146" />
            </Array>
          </mxGeometry>
        </mxCell>
        <mxCell id="zjsat3UUJ6D1l1Pgh6Zy-11" value="&amp;nbsp;" style="edgeLabel;html=1;align=center;verticalAlign=middle;resizable=0;points=[];" parent="zjsat3UUJ6D1l1Pgh6Zy-8" vertex="1" connectable="0">
          <mxGeometry x="0.7886" y="-1" relative="1" as="geometry">
            <mxPoint x="-186" y="-94" as="offset" />
          </mxGeometry>
        </mxCell>
        <mxCell id="HPYgmq36R9sdUYHRq6VX-2" value="" style="endArrow=none;html=1;rounded=0;strokeWidth=2;entryX=0.55;entryY=1.015;entryDx=0;entryDy=0;entryPerimeter=0;" parent="1" target="zjsat3UUJ6D1l1Pgh6Zy-4" edge="1">
          <mxGeometry width="50" height="50" relative="1" as="geometry">
            <mxPoint x="460" y="280" as="sourcePoint" />
            <mxPoint x="780" y="373" as="targetPoint" />
            <Array as="points">
              <mxPoint x="750" y="280" />
              <mxPoint x="750" y="330" />
              <mxPoint x="750" y="373" />
            </Array>
          </mxGeometry>
        </mxCell>
        <mxCell id="HPYgmq36R9sdUYHRq6VX-73" value="S_RDATA[31:0]" style="edgeLabel;html=1;align=center;verticalAlign=middle;resizable=0;points=[];" parent="HPYgmq36R9sdUYHRq6VX-2" vertex="1" connectable="0">
          <mxGeometry x="-0.8579" y="-3" relative="1" as="geometry">
            <mxPoint x="21" y="-10" as="offset" />
          </mxGeometry>
        </mxCell>
        <mxCell id="HPYgmq36R9sdUYHRq6VX-86" value="M_RDATA[31:0]" style="edgeLabel;html=1;align=center;verticalAlign=middle;resizable=0;points=[];" parent="HPYgmq36R9sdUYHRq6VX-2" vertex="1" connectable="0">
          <mxGeometry x="0.8989" y="1" relative="1" as="geometry">
            <mxPoint as="offset" />
          </mxGeometry>
        </mxCell>
        <mxCell id="HPYgmq36R9sdUYHRq6VX-3" value="" style="endArrow=none;html=1;rounded=0;entryX=0.179;entryY=-0.011;entryDx=0;entryDy=0;entryPerimeter=0;exitX=0.328;exitY=1;exitDx=0;exitDy=0;exitPerimeter=0;" parent="1" edge="1">
          <mxGeometry width="50" height="50" relative="1" as="geometry">
            <mxPoint x="380" y="214.12" as="sourcePoint" />
            <mxPoint x="880.9900000000002" y="198.22000000000014" as="targetPoint" />
            <Array as="points">
              <mxPoint x="280" y="214" />
              <mxPoint x="280" y="-20" />
              <mxPoint x="1060" y="-20" />
              <mxPoint x="1060" y="197.88" />
              <mxPoint x="1000" y="197.88" />
            </Array>
          </mxGeometry>
        </mxCell>
        <mxCell id="HPYgmq36R9sdUYHRq6VX-60" value="S_ARADDR[31:0]" style="edgeLabel;html=1;align=center;verticalAlign=middle;resizable=0;points=[];" parent="HPYgmq36R9sdUYHRq6VX-3" vertex="1" connectable="0">
          <mxGeometry x="-0.9303" y="2" relative="1" as="geometry">
            <mxPoint y="-6" as="offset" />
          </mxGeometry>
        </mxCell>
        <mxCell id="HPYgmq36R9sdUYHRq6VX-98" value="M_ARADDR[31:0]" style="edgeLabel;html=1;align=center;verticalAlign=middle;resizable=0;points=[];" parent="HPYgmq36R9sdUYHRq6VX-3" vertex="1" connectable="0">
          <mxGeometry x="0.9607" y="1" relative="1" as="geometry">
            <mxPoint x="19" y="-9" as="offset" />
          </mxGeometry>
        </mxCell>
        <mxCell id="HPYgmq36R9sdUYHRq6VX-6" value="" style="endArrow=none;html=1;rounded=0;exitX=0.927;exitY=-0.011;exitDx=0;exitDy=0;exitPerimeter=0;strokeWidth=2;entryX=0.912;entryY=1.011;entryDx=0;entryDy=0;entryPerimeter=0;" parent="1" edge="1">
          <mxGeometry width="50" height="50" relative="1" as="geometry">
            <mxPoint x="880.99" y="496.9500000000001" as="sourcePoint" />
            <mxPoint x="379.01" y="480.00000000000006" as="targetPoint" />
            <Array as="points">
              <mxPoint x="1230" y="497.04" />
              <mxPoint x="1220" y="751.04" />
              <mxPoint x="110" y="751.04" />
              <mxPoint x="110" y="481.04" />
            </Array>
          </mxGeometry>
        </mxCell>
        <mxCell id="HPYgmq36R9sdUYHRq6VX-68" value="S_WSTRB[3:0]" style="edgeLabel;html=1;align=center;verticalAlign=middle;resizable=0;points=[];" parent="HPYgmq36R9sdUYHRq6VX-6" vertex="1" connectable="0">
          <mxGeometry x="0.9417" y="1" relative="1" as="geometry">
            <mxPoint as="offset" />
          </mxGeometry>
        </mxCell>
        <mxCell id="HPYgmq36R9sdUYHRq6VX-105" value="M_WSTRB[3:0]" style="edgeLabel;html=1;align=center;verticalAlign=middle;resizable=0;points=[];" parent="HPYgmq36R9sdUYHRq6VX-6" vertex="1" connectable="0">
          <mxGeometry x="-0.9636" y="-1" relative="1" as="geometry">
            <mxPoint as="offset" />
          </mxGeometry>
        </mxCell>
        <mxCell id="HPYgmq36R9sdUYHRq6VX-8" style="edgeStyle=orthogonalEdgeStyle;rounded=0;orthogonalLoop=1;jettySize=auto;html=1;entryX=0.427;entryY=1.044;entryDx=0;entryDy=0;entryPerimeter=0;" parent="1" edge="1">
          <mxGeometry relative="1" as="geometry">
            <mxPoint x="83.96" y="90" as="sourcePoint" />
            <mxPoint x="790" y="255.91000000000008" as="targetPoint" />
            <Array as="points">
              <mxPoint x="84" y="91" />
              <mxPoint x="730" y="91" />
              <mxPoint x="730" y="150" />
              <mxPoint x="790" y="150" />
            </Array>
          </mxGeometry>
        </mxCell>
        <mxCell id="HPYgmq36R9sdUYHRq6VX-81" value="ARESETN" style="edgeLabel;html=1;align=center;verticalAlign=middle;resizable=0;points=[];" parent="HPYgmq36R9sdUYHRq6VX-8" vertex="1" connectable="0">
          <mxGeometry x="0.6684" relative="1" as="geometry">
            <mxPoint x="9" y="-7" as="offset" />
          </mxGeometry>
        </mxCell>
        <mxCell id="HPYgmq36R9sdUYHRq6VX-13" value="M" style="edgeStyle=orthogonalEdgeStyle;rounded=0;orthogonalLoop=1;jettySize=auto;html=1;exitX=0.5;exitY=1;exitDx=0;exitDy=0;" parent="1" source="zjsat3UUJ6D1l1Pgh6Zy-1" edge="1">
          <mxGeometry relative="1" as="geometry">
            <mxPoint x="870" y="250" as="targetPoint" />
            <Array as="points">
              <mxPoint x="380" y="250" />
              <mxPoint x="290" y="250" />
              <mxPoint x="290" y="630" />
              <mxPoint x="980" y="630" />
              <mxPoint x="980" y="230" />
              <mxPoint x="880" y="230" />
              <mxPoint x="880" y="250" />
            </Array>
          </mxGeometry>
        </mxCell>
        <mxCell id="HPYgmq36R9sdUYHRq6VX-61" value="S_ARVALID" style="edgeLabel;html=1;align=center;verticalAlign=middle;resizable=0;points=[];" parent="HPYgmq36R9sdUYHRq6VX-13" vertex="1" connectable="0">
          <mxGeometry x="-0.904" y="-2" relative="1" as="geometry">
            <mxPoint y="-8" as="offset" />
          </mxGeometry>
        </mxCell>
        <mxCell id="HPYgmq36R9sdUYHRq6VX-101" value="M_ARVALID" style="edgeLabel;html=1;align=center;verticalAlign=middle;resizable=0;points=[];" parent="HPYgmq36R9sdUYHRq6VX-13" vertex="1" connectable="0">
          <mxGeometry x="0.8593" y="2" relative="1" as="geometry">
            <mxPoint x="38" y="-87" as="offset" />
          </mxGeometry>
        </mxCell>
        <mxCell id="HPYgmq36R9sdUYHRq6VX-111" value="M_ARVALID" style="edgeLabel;html=1;align=center;verticalAlign=middle;resizable=0;points=[];" parent="HPYgmq36R9sdUYHRq6VX-13" vertex="1" connectable="0">
          <mxGeometry x="0.9416" y="1" relative="1" as="geometry">
            <mxPoint x="20" as="offset" />
          </mxGeometry>
        </mxCell>
        <mxCell id="HPYgmq36R9sdUYHRq6VX-14" style="edgeStyle=orthogonalEdgeStyle;rounded=0;orthogonalLoop=1;jettySize=auto;html=1;exitX=0.5;exitY=1;exitDx=0;exitDy=0;entryX=0.785;entryY=-0.022;entryDx=0;entryDy=0;entryPerimeter=0;" parent="1" edge="1">
          <mxGeometry relative="1" as="geometry">
            <mxPoint x="370" y="230" as="sourcePoint" />
            <mxPoint x="871.98" y="334.04999999999995" as="targetPoint" />
            <Array as="points">
              <mxPoint x="260" y="230" />
              <mxPoint x="260" y="620" />
              <mxPoint x="1190" y="620" />
              <mxPoint x="1190" y="334" />
            </Array>
          </mxGeometry>
        </mxCell>
        <mxCell id="HPYgmq36R9sdUYHRq6VX-62" value="S_AWADDR[31:0]" style="edgeLabel;html=1;align=center;verticalAlign=middle;resizable=0;points=[];" parent="HPYgmq36R9sdUYHRq6VX-14" vertex="1" connectable="0">
          <mxGeometry x="-0.9292" y="-2" relative="1" as="geometry">
            <mxPoint x="42" y="52" as="offset" />
          </mxGeometry>
        </mxCell>
        <mxCell id="HPYgmq36R9sdUYHRq6VX-102" value="M_AWVALID" style="edgeLabel;html=1;align=center;verticalAlign=middle;resizable=0;points=[];" parent="HPYgmq36R9sdUYHRq6VX-14" vertex="1" connectable="0">
          <mxGeometry x="0.9731" relative="1" as="geometry">
            <mxPoint x="11" y="-14" as="offset" />
          </mxGeometry>
        </mxCell>
        <mxCell id="HPYgmq36R9sdUYHRq6VX-15" value="" style="endArrow=none;html=1;rounded=0;exitX=0.906;exitY=-0.044;exitDx=0;exitDy=0;exitPerimeter=0;entryX=0.697;entryY=1;entryDx=0;entryDy=0;entryPerimeter=0;" parent="1" edge="1">
          <mxGeometry width="50" height="50" relative="1" as="geometry">
            <mxPoint x="873.96" y="392.15999999999985" as="sourcePoint" />
            <mxPoint x="380" y="324.01" as="targetPoint" />
            <Array as="points">
              <mxPoint x="1080" y="386" />
              <mxPoint x="1080" y="716" />
              <mxPoint x="240" y="696" />
              <mxPoint x="240" y="326" />
            </Array>
          </mxGeometry>
        </mxCell>
        <mxCell id="HPYgmq36R9sdUYHRq6VX-64" value="S_BREADY" style="edgeLabel;html=1;align=center;verticalAlign=middle;resizable=0;points=[];" parent="HPYgmq36R9sdUYHRq6VX-15" vertex="1" connectable="0">
          <mxGeometry x="0.9562" y="-1" relative="1" as="geometry">
            <mxPoint as="offset" />
          </mxGeometry>
        </mxCell>
        <mxCell id="HPYgmq36R9sdUYHRq6VX-110" value="M_BREADY" style="edgeLabel;html=1;align=center;verticalAlign=middle;resizable=0;points=[];" parent="HPYgmq36R9sdUYHRq6VX-15" vertex="1" connectable="0">
          <mxGeometry x="-0.9653" relative="1" as="geometry">
            <mxPoint as="offset" />
          </mxGeometry>
        </mxCell>
        <mxCell id="HPYgmq36R9sdUYHRq6VX-17" value="" style="endArrow=none;html=1;rounded=0;" parent="1" edge="1">
          <mxGeometry width="50" height="50" relative="1" as="geometry">
            <mxPoint x="880" y="444.09" as="sourcePoint" />
            <mxPoint x="380" y="420" as="targetPoint" />
            <Array as="points">
              <mxPoint x="1160" y="444" />
              <mxPoint x="1170" y="770" />
              <mxPoint x="950" y="770" />
              <mxPoint x="160" y="774.09" />
              <mxPoint x="160" y="454.09" />
              <mxPoint x="160" y="420" />
            </Array>
          </mxGeometry>
        </mxCell>
        <mxCell id="HPYgmq36R9sdUYHRq6VX-66" value="S_WVALID" style="edgeLabel;html=1;align=center;verticalAlign=middle;resizable=0;points=[];" parent="HPYgmq36R9sdUYHRq6VX-17" vertex="1" connectable="0">
          <mxGeometry x="0.9623" y="-2" relative="1" as="geometry">
            <mxPoint as="offset" />
          </mxGeometry>
        </mxCell>
        <mxCell id="HPYgmq36R9sdUYHRq6VX-109" value="M_RREADY" style="edgeLabel;html=1;align=center;verticalAlign=middle;resizable=0;points=[];" parent="HPYgmq36R9sdUYHRq6VX-17" vertex="1" connectable="0">
          <mxGeometry x="-0.9756" y="-1" relative="1" as="geometry">
            <mxPoint x="-3" as="offset" />
          </mxGeometry>
        </mxCell>
        <mxCell id="HPYgmq36R9sdUYHRq6VX-19" value="" style="endArrow=none;html=1;rounded=0;exitX=0.076;exitY=-0.011;exitDx=0;exitDy=0;exitPerimeter=0;" parent="1" source="zjsat3UUJ6D1l1Pgh6Zy-1" edge="1">
          <mxGeometry width="50" height="50" relative="1" as="geometry">
            <mxPoint x="770" y="210" as="sourcePoint" />
            <mxPoint x="820" y="160" as="targetPoint" />
            <Array as="points">
              <mxPoint x="710" y="130" />
              <mxPoint x="710" y="160" />
            </Array>
          </mxGeometry>
        </mxCell>
        <mxCell id="HPYgmq36R9sdUYHRq6VX-69" value="S_ABREDY" style="edgeLabel;html=1;align=center;verticalAlign=middle;resizable=0;points=[];" parent="HPYgmq36R9sdUYHRq6VX-19" vertex="1" connectable="0">
          <mxGeometry x="-0.8891" y="1" relative="1" as="geometry">
            <mxPoint x="8" y="-12" as="offset" />
          </mxGeometry>
        </mxCell>
        <mxCell id="HPYgmq36R9sdUYHRq6VX-82" value="M_ARREADY" style="edgeLabel;html=1;align=center;verticalAlign=middle;resizable=0;points=[];" parent="HPYgmq36R9sdUYHRq6VX-19" vertex="1" connectable="0">
          <mxGeometry x="0.5462" relative="1" as="geometry">
            <mxPoint as="offset" />
          </mxGeometry>
        </mxCell>
        <mxCell id="HPYgmq36R9sdUYHRq6VX-20" value="" style="endArrow=none;html=1;rounded=0;exitX=0.176;exitY=-0.033;exitDx=0;exitDy=0;exitPerimeter=0;" parent="1" source="zjsat3UUJ6D1l1Pgh6Zy-1" edge="1">
          <mxGeometry width="50" height="50" relative="1" as="geometry">
            <mxPoint x="480" y="170" as="sourcePoint" />
            <mxPoint x="787" y="200" as="targetPoint" />
            <Array as="points">
              <mxPoint x="720" y="170" />
              <mxPoint x="720" y="200" />
            </Array>
          </mxGeometry>
        </mxCell>
        <mxCell id="HPYgmq36R9sdUYHRq6VX-70" value="S_AWREADY" style="edgeLabel;html=1;align=center;verticalAlign=middle;resizable=0;points=[];" parent="HPYgmq36R9sdUYHRq6VX-20" vertex="1" connectable="0">
          <mxGeometry x="-0.9167" y="2" relative="1" as="geometry">
            <mxPoint x="23" y="-6" as="offset" />
          </mxGeometry>
        </mxCell>
        <mxCell id="HPYgmq36R9sdUYHRq6VX-83" value="M_AWREADY" style="edgeLabel;html=1;align=center;verticalAlign=middle;resizable=0;points=[];" parent="HPYgmq36R9sdUYHRq6VX-20" vertex="1" connectable="0">
          <mxGeometry x="0.7617" relative="1" as="geometry">
            <mxPoint y="-10" as="offset" />
          </mxGeometry>
        </mxCell>
        <mxCell id="HPYgmq36R9sdUYHRq6VX-21" value="" style="endArrow=none;html=1;rounded=0;exitX=0.213;exitY=0.956;exitDx=0;exitDy=0;entryX=0.231;entryY=0.007;entryDx=0;entryDy=0;entryPerimeter=0;exitPerimeter=0;" parent="1" source="zjsat3UUJ6D1l1Pgh6Zy-4" target="zjsat3UUJ6D1l1Pgh6Zy-1" edge="1">
          <mxGeometry width="50" height="50" relative="1" as="geometry">
            <mxPoint x="770" y="210" as="sourcePoint" />
            <mxPoint x="770" y="200" as="targetPoint" />
            <Array as="points">
              <mxPoint x="700" y="220" />
              <mxPoint x="700" y="183" />
            </Array>
          </mxGeometry>
        </mxCell>
        <mxCell id="HPYgmq36R9sdUYHRq6VX-71" value="SBRESP[1:0]" style="edgeLabel;html=1;align=center;verticalAlign=middle;resizable=0;points=[];" parent="HPYgmq36R9sdUYHRq6VX-21" vertex="1" connectable="0">
          <mxGeometry x="0.8306" y="2" relative="1" as="geometry">
            <mxPoint x="10" y="-6" as="offset" />
          </mxGeometry>
        </mxCell>
        <mxCell id="HPYgmq36R9sdUYHRq6VX-84" value="M_BRESP" style="edgeLabel;html=1;align=center;verticalAlign=middle;resizable=0;points=[];" parent="HPYgmq36R9sdUYHRq6VX-21" vertex="1" connectable="0">
          <mxGeometry x="-0.6426" y="-1" relative="1" as="geometry">
            <mxPoint x="11" y="-8" as="offset" />
          </mxGeometry>
        </mxCell>
        <mxCell id="HPYgmq36R9sdUYHRq6VX-22" value="" style="endArrow=none;html=1;rounded=0;exitX=0.636;exitY=0;exitDx=0;exitDy=0;exitPerimeter=0;" parent="1" edge="1">
          <mxGeometry width="50" height="50" relative="1" as="geometry">
            <mxPoint x="471" y="317.8800000000001" as="sourcePoint" />
            <mxPoint x="790" y="400" as="targetPoint" />
            <Array as="points">
              <mxPoint x="741" y="320" />
              <mxPoint x="741" y="400" />
              <mxPoint x="750" y="400" />
            </Array>
          </mxGeometry>
        </mxCell>
        <mxCell id="HPYgmq36R9sdUYHRq6VX-74" value="S_PRESP[1:0]" style="edgeLabel;html=1;align=center;verticalAlign=middle;resizable=0;points=[];" parent="HPYgmq36R9sdUYHRq6VX-22" vertex="1" connectable="0">
          <mxGeometry x="-0.9198" y="-1" relative="1" as="geometry">
            <mxPoint x="24" y="-9" as="offset" />
          </mxGeometry>
        </mxCell>
        <mxCell id="HPYgmq36R9sdUYHRq6VX-89" value="M_RRESP" style="edgeLabel;html=1;align=center;verticalAlign=middle;resizable=0;points=[];" parent="HPYgmq36R9sdUYHRq6VX-22" vertex="1" connectable="0">
          <mxGeometry x="0.8897" relative="1" as="geometry">
            <mxPoint as="offset" />
          </mxGeometry>
        </mxCell>
        <mxCell id="HPYgmq36R9sdUYHRq6VX-26" value="" style="endArrow=none;html=1;rounded=0;exitX=0.697;exitY=0.033;exitDx=0;exitDy=0;exitPerimeter=0;entryX=0.717;entryY=0.963;entryDx=0;entryDy=0;entryPerimeter=0;" parent="1" source="zjsat3UUJ6D1l1Pgh6Zy-1" target="zjsat3UUJ6D1l1Pgh6Zy-4" edge="1">
          <mxGeometry width="50" height="50" relative="1" as="geometry">
            <mxPoint x="470" y="380" as="sourcePoint" />
            <mxPoint x="780" y="450" as="targetPoint" />
            <Array as="points">
              <mxPoint x="590" y="340" />
              <mxPoint x="710" y="340" />
              <mxPoint x="710" y="450" />
              <mxPoint x="740" y="450" />
              <mxPoint x="750" y="450" />
              <mxPoint x="770" y="450" />
            </Array>
          </mxGeometry>
        </mxCell>
        <mxCell id="HPYgmq36R9sdUYHRq6VX-75" value="S_WREARY" style="edgeLabel;html=1;align=center;verticalAlign=middle;resizable=0;points=[];" parent="HPYgmq36R9sdUYHRq6VX-26" vertex="1" connectable="0">
          <mxGeometry x="-0.8251" y="-1" relative="1" as="geometry">
            <mxPoint x="6" y="50" as="offset" />
          </mxGeometry>
        </mxCell>
        <mxCell id="HPYgmq36R9sdUYHRq6VX-76" value="S_RVALID" style="edgeLabel;html=1;align=center;verticalAlign=middle;resizable=0;points=[];" parent="HPYgmq36R9sdUYHRq6VX-26" vertex="1" connectable="0">
          <mxGeometry x="-0.8504" relative="1" as="geometry">
            <mxPoint as="offset" />
          </mxGeometry>
        </mxCell>
        <mxCell id="HPYgmq36R9sdUYHRq6VX-40" style="edgeStyle=orthogonalEdgeStyle;rounded=0;orthogonalLoop=1;jettySize=auto;html=1;" parent="1" edge="1">
          <mxGeometry relative="1" as="geometry">
            <mxPoint x="800" y="528" as="targetPoint" />
            <mxPoint x="-100" y="638" as="sourcePoint" />
            <Array as="points">
              <mxPoint x="390" y="628" />
              <mxPoint x="390" y="528" />
            </Array>
          </mxGeometry>
        </mxCell>
        <mxCell id="HPYgmq36R9sdUYHRq6VX-94" value="START_WRITE" style="edgeLabel;html=1;align=center;verticalAlign=middle;resizable=0;points=[];" parent="HPYgmq36R9sdUYHRq6VX-40" vertex="1" connectable="0">
          <mxGeometry x="0.8587" relative="1" as="geometry">
            <mxPoint x="1" y="-8" as="offset" />
          </mxGeometry>
        </mxCell>
        <mxCell id="HPYgmq36R9sdUYHRq6VX-31" value="" style="shape=offPageConnector;whiteSpace=wrap;html=1;direction=north;rotation=0;" parent="1" vertex="1">
          <mxGeometry x="-170" y="570" width="80" height="80" as="geometry" />
        </mxCell>
        <mxCell id="HPYgmq36R9sdUYHRq6VX-32" value="" style="shape=offPageConnector;whiteSpace=wrap;html=1;direction=north;rotation=0;" parent="1" vertex="1">
          <mxGeometry x="-170" y="480" width="80" height="80" as="geometry" />
        </mxCell>
        <mxCell id="HPYgmq36R9sdUYHRq6VX-33" value="" style="shape=offPageConnector;whiteSpace=wrap;html=1;direction=north;rotation=0;strokeWidth=3;" parent="1" vertex="1">
          <mxGeometry x="-180" y="690" width="90" height="80" as="geometry" />
        </mxCell>
        <mxCell id="HPYgmq36R9sdUYHRq6VX-42" style="edgeStyle=orthogonalEdgeStyle;rounded=0;orthogonalLoop=1;jettySize=auto;html=1;" parent="1" edge="1">
          <mxGeometry relative="1" as="geometry">
            <mxPoint x="790" y="575" as="targetPoint" />
            <mxPoint x="-90" y="855" as="sourcePoint" />
            <Array as="points">
              <mxPoint x="420" y="855" />
              <mxPoint x="420" y="575" />
            </Array>
          </mxGeometry>
        </mxCell>
        <mxCell id="HPYgmq36R9sdUYHRq6VX-96" value="address[31:0]" style="edgeLabel;html=1;align=center;verticalAlign=middle;resizable=0;points=[];" parent="HPYgmq36R9sdUYHRq6VX-42" vertex="1" connectable="0">
          <mxGeometry x="0.8506" relative="1" as="geometry">
            <mxPoint y="-5" as="offset" />
          </mxGeometry>
        </mxCell>
        <mxCell id="HPYgmq36R9sdUYHRq6VX-34" value="" style="shape=offPageConnector;whiteSpace=wrap;html=1;direction=north;rotation=0;strokeWidth=3;" parent="1" vertex="1">
          <mxGeometry x="-180" y="800" width="80" height="80" as="geometry" />
        </mxCell>
        <mxCell id="HPYgmq36R9sdUYHRq6VX-36" style="edgeStyle=orthogonalEdgeStyle;rounded=0;orthogonalLoop=1;jettySize=auto;html=1;exitX=0.75;exitY=0;exitDx=0;exitDy=0;entryX=1;entryY=0;entryDx=0;entryDy=0;" parent="1" source="HPYgmq36R9sdUYHRq6VX-31" target="HPYgmq36R9sdUYHRq6VX-31" edge="1">
          <mxGeometry relative="1" as="geometry" />
        </mxCell>
        <mxCell id="HPYgmq36R9sdUYHRq6VX-38" value="" style="endArrow=none;html=1;rounded=0;" parent="1" edge="1">
          <mxGeometry width="50" height="50" relative="1" as="geometry">
            <mxPoint x="480" y="390" as="sourcePoint" />
            <mxPoint x="790" y="480" as="targetPoint" />
            <Array as="points">
              <mxPoint x="670" y="390" />
              <mxPoint x="670" y="480" />
            </Array>
          </mxGeometry>
        </mxCell>
        <mxCell id="HPYgmq36R9sdUYHRq6VX-91" value="M_WREADY" style="edgeLabel;html=1;align=center;verticalAlign=middle;resizable=0;points=[];" parent="HPYgmq36R9sdUYHRq6VX-38" vertex="1" connectable="0">
          <mxGeometry x="0.72" y="3" relative="1" as="geometry">
            <mxPoint as="offset" />
          </mxGeometry>
        </mxCell>
        <mxCell id="HPYgmq36R9sdUYHRq6VX-39" style="edgeStyle=orthogonalEdgeStyle;rounded=0;orthogonalLoop=1;jettySize=auto;html=1;entryX=0.891;entryY=0.978;entryDx=0;entryDy=0;entryPerimeter=0;" parent="1" edge="1">
          <mxGeometry relative="1" as="geometry">
            <mxPoint x="-90" y="530.07" as="sourcePoint" />
            <mxPoint x="791.98" y="539.93" as="targetPoint" />
            <Array as="points">
              <mxPoint x="350" y="530.07" />
              <mxPoint x="350" y="500.07" />
              <mxPoint x="792" y="500.07" />
            </Array>
          </mxGeometry>
        </mxCell>
        <mxCell id="HPYgmq36R9sdUYHRq6VX-93" value="START_READ" style="edgeLabel;html=1;align=center;verticalAlign=middle;resizable=0;points=[];" parent="HPYgmq36R9sdUYHRq6VX-39" vertex="1" connectable="0">
          <mxGeometry x="0.8" y="-2" relative="1" as="geometry">
            <mxPoint x="3" y="-12" as="offset" />
          </mxGeometry>
        </mxCell>
        <mxCell id="HPYgmq36R9sdUYHRq6VX-41" style="edgeStyle=orthogonalEdgeStyle;rounded=0;orthogonalLoop=1;jettySize=auto;html=1;entryX=0.883;entryY=1;entryDx=0;entryDy=0;entryPerimeter=0;" parent="1" edge="1">
          <mxGeometry relative="1" as="geometry">
            <mxPoint x="-90" y="737.98" as="sourcePoint" />
            <mxPoint x="790" y="534.1600000000001" as="targetPoint" />
            <Array as="points">
              <mxPoint x="660" y="738" />
              <mxPoint x="660" y="550" />
              <mxPoint x="790" y="550" />
            </Array>
          </mxGeometry>
        </mxCell>
        <mxCell id="HPYgmq36R9sdUYHRq6VX-95" value="W_data[31:0]" style="edgeLabel;html=1;align=center;verticalAlign=middle;resizable=0;points=[];" parent="HPYgmq36R9sdUYHRq6VX-41" vertex="1" connectable="0">
          <mxGeometry x="0.865" y="3" relative="1" as="geometry">
            <mxPoint as="offset" />
          </mxGeometry>
        </mxCell>
        <mxCell id="HPYgmq36R9sdUYHRq6VX-49" value="ACLK&lt;div&gt;&lt;br&gt;&lt;/div&gt;" style="text;html=1;align=center;verticalAlign=middle;resizable=0;points=[];autosize=1;strokeColor=none;fillColor=none;" parent="1" vertex="1">
          <mxGeometry y="30" width="50" height="40" as="geometry" />
        </mxCell>
        <mxCell id="HPYgmq36R9sdUYHRq6VX-50" value="ARESTEN" style="text;html=1;align=center;verticalAlign=middle;resizable=0;points=[];autosize=1;strokeColor=none;fillColor=none;" parent="1" vertex="1">
          <mxGeometry x="-20" y="78" width="80" height="30" as="geometry" />
        </mxCell>
        <mxCell id="HPYgmq36R9sdUYHRq6VX-51" value="read_s" style="text;html=1;align=center;verticalAlign=middle;resizable=0;points=[];autosize=1;strokeColor=none;fillColor=none;" parent="1" vertex="1">
          <mxGeometry x="-250" y="518" width="60" height="30" as="geometry" />
        </mxCell>
        <mxCell id="HPYgmq36R9sdUYHRq6VX-52" value="write_s" style="text;html=1;align=center;verticalAlign=middle;resizable=0;points=[];autosize=1;strokeColor=none;fillColor=none;" parent="1" vertex="1">
          <mxGeometry x="-240" y="608" width="60" height="30" as="geometry" />
        </mxCell>
        <mxCell id="HPYgmq36R9sdUYHRq6VX-53" value="W_data[31:0]" style="text;html=1;align=center;verticalAlign=middle;resizable=0;points=[];autosize=1;strokeColor=none;fillColor=none;" parent="1" vertex="1">
          <mxGeometry x="-285" y="708" width="90" height="30" as="geometry" />
        </mxCell>
        <mxCell id="HPYgmq36R9sdUYHRq6VX-55" value="address[31:0]" style="text;html=1;align=center;verticalAlign=middle;resizable=0;points=[];autosize=1;strokeColor=none;fillColor=none;" parent="1" vertex="1">
          <mxGeometry x="-290" y="825" width="100" height="30" as="geometry" />
        </mxCell>
        <mxCell id="HPYgmq36R9sdUYHRq6VX-56" value="u_axi4_lit_slave0" style="text;html=1;align=center;verticalAlign=middle;resizable=0;points=[];autosize=1;strokeColor=none;fillColor=none;" parent="1" vertex="1">
          <mxGeometry x="360" y="80" width="120" height="30" as="geometry" />
        </mxCell>
        <mxCell id="HPYgmq36R9sdUYHRq6VX-57" value="ACLK" style="text;html=1;align=center;verticalAlign=middle;resizable=0;points=[];autosize=1;strokeColor=none;fillColor=none;" parent="1" vertex="1">
          <mxGeometry x="335" y="128" width="50" height="30" as="geometry" />
        </mxCell>
        <mxCell id="HPYgmq36R9sdUYHRq6VX-90" value="M_RVALID" style="text;html=1;align=center;verticalAlign=middle;resizable=0;points=[];autosize=1;strokeColor=none;fillColor=none;" parent="1" vertex="1">
          <mxGeometry x="700" y="428" width="80" height="30" as="geometry" />
        </mxCell>
        <mxCell id="HPYgmq36R9sdUYHRq6VX-97" value="u_axi4_lite_master0" style="text;html=1;align=center;verticalAlign=middle;resizable=0;points=[];autosize=1;strokeColor=none;fillColor=none;" parent="1" vertex="1">
          <mxGeometry x="780" y="90" width="130" height="30" as="geometry" />
        </mxCell>
      </root>
    </mxGraphModel>
  </diagram>
</mxfile>
